<?xml version="1.0" standalone="no"?>
<!DOCTYPE svg PUBLIC "-//W3C//DTD SVG 20010904//EN"
 "http://www.w3.org/TR/2001/REC-SVG-20010904/DTD/svg10.dtd">
<svg version="1.0" xmlns="http://www.w3.org/2000/svg"
 width="426.000000pt" height="426.000000pt" viewBox="0 0 426.000000 426.000000"
 preserveAspectRatio="xMidYMid meet">
<metadata>
Created by potrace 1.14, written by Peter Selinger 2001-2017
</metadata>
<g transform="translate(0.000000,426.000000) scale(0.100000,-0.100000)"
fill="#000000" stroke="none">
<path d="M0 2130 l0 -2130 2130 0 2130 0 0 2130 0 2130 -2130 0 -2130 0 0
-2130z m2855 1717 l370 -214 0 -438 0 -437 -373 -215 -372 -215 375 -217 375
-216 0 -436 0 -435 -749 -432 c-411 -238 -752 -432 -757 -432 -5 0 -175 96
-379 214 l-370 213 0 437 0 437 373 216 372 215 -375 217 -375 216 0 436 0
435 748 432 c411 238 752 432 757 432 6 0 177 -96 380 -213z"/>
<path d="M2425 3165 c-22 -14 -187 -109 -367 -212 -180 -104 -324 -191 -320
-195 4 -3 165 -97 357 -208 193 -111 356 -207 363 -212 9 -8 12 53 12 299 0
171 3 365 7 431 3 71 2 122 -3 122 -5 0 -27 -12 -49 -25z"/>
<path d="M1730 1453 c0 -366 2 -432 14 -421 7 7 173 105 369 218 196 113 356
207 356 210 0 3 -97 60 -217 128 -119 67 -286 162 -369 211 l-153 89 0 -435z"/>
<path d="M1731 694 c0 -11 3 -14 6 -6 3 7 2 16 -1 19 -3 4 -6 -2 -5 -13z"/>
</g>
</svg>
